<svg version="1.1" xmlns="http://www.w3.org/2000/svg" xmlns:xlink="http://www.w3.org/1999/xlink" width="533.29541015625" height="500"><defs/><g><text fill="#eeeeee" stroke="none" font-family="Arial" font-size="24px" font-style="normal" font-weight="normal" text-decoration="none" x="0" y="0"></text><text fill="#eeeeee" stroke="none" font-family="Arial" font-size="24px" font-style="normal" font-weight="normal" text-decoration="none" x="0" y="30"></text><text fill="#eeeeee" stroke="none" font-family="Arial" font-size="24px" font-style="normal" font-weight="normal" text-decoration="none" x="0" y="60"></text><text fill="#eeeeee" stroke="none" font-family="Arial" font-size="24px" font-style="normal" font-weight="normal" text-decoration="none" x="0" y="90"></text><text fill="#eeeeee" stroke="none" font-family="Arial" font-size="24px" font-style="normal" font-weight="normal" text-decoration="none" x="0" y="120"></text><text fill="#eeeeee" stroke="none" font-family="Arial" font-size="24px" font-style="normal" font-weight="normal" text-decoration="none" x="0" y="150"></text><text fill="#eeeeee" stroke="none" font-family="Arial" font-size="24px" font-style="normal" font-weight="normal" text-decoration="none" x="0" y="180"></text><text fill="#eeeeee" stroke="none" font-family="Arial" font-size="24px" font-style="normal" font-weight="normal" text-decoration="none" x="0" y="210"></text><text fill="#eeeeee" stroke="none" font-family="Arial" font-size="24px" font-style="normal" font-weight="normal" text-decoration="none" x="0" y="240"></text><text fill="#eeeeee" stroke="none" font-family="Arial" font-size="24px" font-style="normal" font-weight="normal" text-decoration="none" x="0" y="270"></text><text fill="#eeeeee" stroke="none" font-family="Arial" font-size="24px" font-style="normal" font-weight="normal" text-decoration="none" x="0" y="300"></text><text fill="#eeeeee" stroke="none" font-family="Arial" font-size="24px" font-style="normal" font-weight="normal" text-decoration="none" x="0" y="330"></text><text fill="#eeeeee" stroke="none" font-family="Arial" font-size="24px" font-style="normal" font-weight="normal" text-decoration="none" x="0" y="360"></text><text fill="#eeeeee" stroke="none" font-family="Arial" font-size="24px" font-style="normal" font-weight="normal" text-decoration="none" x="0" y="390"></text><text fill="#eeeeee" stroke="none" font-family="Arial" font-size="24px" font-style="normal" font-weight="normal" text-decoration="none" x="0" y="420"></text><text fill="#eeeeee" stroke="none" font-family="Arial" font-size="24px" font-style="normal" font-weight="normal" text-decoration="none" x="0" y="450"></text><text fill="#eeeeee" stroke="none" font-family="Arial" font-size="24px" font-style="normal" font-weight="normal" text-decoration="none" x="0" y="480"></text><text fill="#eeeeee" stroke="none" font-family="Arial" font-size="24px" font-style="normal" font-weight="normal" text-decoration="none" x="200" y="0"></text><text fill="#eeeeee" stroke="none" font-family="Arial" font-size="24px" font-style="normal" font-weight="normal" text-decoration="none" x="200" y="30"></text><text fill="#eeeeee" stroke="none" font-family="Arial" font-size="24px" font-style="normal" font-weight="normal" text-decoration="none" x="200" y="60"></text><text fill="#eeeeee" stroke="none" font-family="Arial" font-size="24px" font-style="normal" font-weight="normal" text-decoration="none" x="200" y="90"></text><text fill="#eeeeee" stroke="none" font-family="Arial" font-size="24px" font-style="normal" font-weight="normal" text-decoration="none" x="200" y="120"></text><text fill="#eeeeee" stroke="none" font-family="Arial" font-size="24px" font-style="normal" font-weight="normal" text-decoration="none" x="200" y="150"></text><text fill="#eeeeee" stroke="none" font-family="Arial" font-size="24px" font-style="normal" font-weight="normal" text-decoration="none" x="200" y="180"></text><text fill="#eeeeee" stroke="none" font-family="Arial" font-size="24px" font-style="normal" font-weight="normal" text-decoration="none" x="200" y="210"></text><text fill="#eeeeee" stroke="none" font-family="Arial" font-size="24px" font-style="normal" font-weight="normal" text-decoration="none" x="200" y="240"></text><text fill="#eeeeee" stroke="none" font-family="Arial" font-size="24px" font-style="normal" font-weight="normal" text-decoration="none" x="200" y="270"></text><text fill="#eeeeee" stroke="none" font-family="Arial" font-size="24px" font-style="normal" font-weight="normal" text-decoration="none" x="200" y="300"></text><text fill="#eeeeee" stroke="none" font-family="Arial" font-size="24px" font-style="normal" font-weight="normal" text-decoration="none" x="200" y="330"></text><text fill="#eeeeee" stroke="none" font-family="Arial" font-size="24px" font-style="normal" font-weight="normal" text-decoration="none" x="200" y="360"></text><text fill="#eeeeee" stroke="none" font-family="Arial" font-size="24px" font-style="normal" font-weight="normal" text-decoration="none" x="200" y="390"></text><text fill="#eeeeee" stroke="none" font-family="Arial" font-size="24px" font-style="normal" font-weight="normal" text-decoration="none" x="200" y="420"></text><text fill="#eeeeee" stroke="none" font-family="Arial" font-size="24px" font-style="normal" font-weight="normal" text-decoration="none" x="200" y="450"></text><text fill="#eeeeee" stroke="none" font-family="Arial" font-size="24px" font-style="normal" font-weight="normal" text-decoration="none" x="200" y="480"></text><text fill="#eeeeee" stroke="none" font-family="Arial" font-size="24px" font-style="normal" font-weight="normal" text-decoration="none" x="400" y="0"></text><text fill="#eeeeee" stroke="none" font-family="Arial" font-size="24px" font-style="normal" font-weight="normal" text-decoration="none" x="400" y="30"></text><text fill="#eeeeee" stroke="none" font-family="Arial" font-size="24px" font-style="normal" font-weight="normal" text-decoration="none" x="400" y="60"></text><text fill="#eeeeee" stroke="none" font-family="Arial" font-size="24px" font-style="normal" font-weight="normal" text-decoration="none" x="400" y="90"></text><text fill="#eeeeee" stroke="none" font-family="Arial" font-size="24px" font-style="normal" font-weight="normal" text-decoration="none" x="400" y="120"></text><text fill="#eeeeee" stroke="none" font-family="Arial" font-size="24px" font-style="normal" font-weight="normal" text-decoration="none" x="400" y="150"></text><text fill="#eeeeee" stroke="none" font-family="Arial" font-size="24px" font-style="normal" font-weight="normal" text-decoration="none" x="400" y="180"></text><text fill="#eeeeee" stroke="none" font-family="Arial" font-size="24px" font-style="normal" font-weight="normal" text-decoration="none" x="400" y="210"></text><text fill="#eeeeee" stroke="none" font-family="Arial" font-size="24px" font-style="normal" font-weight="normal" text-decoration="none" x="400" y="240"></text><text fill="#eeeeee" stroke="none" font-family="Arial" font-size="24px" font-style="normal" font-weight="normal" text-decoration="none" x="400" y="270"></text><text fill="#eeeeee" stroke="none" font-family="Arial" font-size="24px" font-style="normal" font-weight="normal" text-decoration="none" x="400" y="300"></text><text fill="#eeeeee" stroke="none" font-family="Arial" font-size="24px" font-style="normal" font-weight="normal" text-decoration="none" x="400" y="330"></text><text fill="#eeeeee" stroke="none" font-family="Arial" font-size="24px" font-style="normal" font-weight="normal" text-decoration="none" x="400" y="360"></text><text fill="#eeeeee" stroke="none" font-family="Arial" font-size="24px" font-style="normal" font-weight="normal" text-decoration="none" x="400" y="390"></text><text fill="#eeeeee" stroke="none" font-family="Arial" font-size="24px" font-style="normal" font-weight="normal" text-decoration="none" x="400" y="420"></text><text fill="#eeeeee" stroke="none" font-family="Arial" font-size="24px" font-style="normal" font-weight="normal" text-decoration="none" x="400" y="450"></text><text fill="#eeeeee" stroke="none" font-family="Arial" font-size="24px" font-style="normal" font-weight="normal" text-decoration="none" x="400" y="480"></text><g transform="translate(-214,-125) scale(1,1)"><path fill="#C0C0C0" stroke="none" d="M 241 495 L 299.36083984375 495 Q 309.36083984375 495 309.36083984375 505 L 309.36083984375 524 Q 309.36083984375 534 299.36083984375 534 L 241 534 Q 231 534 231 524 L 231 505 Q 231 495 241 495 Z" opacity="0.2"/></g><g transform="translate(-214,-125) scale(1,1)"><path fill="#ffffff" stroke="none" d="M 234 488 L 292.36083984375 488 Q 302.36083984375 488 302.36083984375 498 L 302.36083984375 517 Q 302.36083984375 527 292.36083984375 527 L 234 527 Q 224 527 224 517 L 224 498 Q 224 488 234 488 Z"/></g><g transform="translate(-214,-125) scale(1,1)"><path fill="none" stroke="#000000" d="M 234 488 L 292.36083984375 488 Q 302.36083984375 488 302.36083984375 498 L 302.36083984375 517 Q 302.36083984375 527 292.36083984375 527 L 234 527 Q 224 527 224 517 L 224 498 Q 224 488 234 488 Z" stroke-miterlimit="10"/></g><g transform="translate(-214,-125) scale(1,1)"><g><path fill="none" stroke="none"/><text fill="#000000" stroke="none" font-family="Arial" font-size="13px" font-style="normal" font-weight="bold" text-decoration="none" x="230.661376953125" y="507.5">ampersand</text></g></g><g transform="translate(-214,-125) scale(1,1)"><path fill="#C0C0C0" stroke="none" d="M 497 383 L 536 383 Q 546 383 546 393 L 546 412 Q 546 422 536 422 L 497 422 Q 487 422 487 412 L 487 393 Q 487 383 497 383 Z" opacity="0.2"/></g><g transform="translate(-214,-125) scale(1,1)"><path fill="#ffffff" stroke="none" d="M 490 376 L 529 376 Q 539 376 539 386 L 539 405 Q 539 415 529 415 L 490 415 Q 480 415 480 405 L 480 386 Q 480 376 490 376 Z"/></g><g transform="translate(-214,-125) scale(1,1)"><path fill="none" stroke="#000000" d="M 490 376 L 529 376 Q 539 376 539 386 L 539 405 Q 539 415 529 415 L 490 415 Q 480 415 480 405 L 480 386 Q 480 376 490 376 Z" stroke-miterlimit="10"/></g><g transform="translate(-214,-125) scale(1,1)"><g><path fill="none" stroke="none"/><text fill="#000000" stroke="none" font-family="Arial" font-size="13px" font-style="normal" font-weight="bold" text-decoration="none" x="495.049560546875" y="395.5">letter</text></g></g><g transform="translate(-214,-125) scale(1,1)"><path fill="#C0C0C0" stroke="none" d="M 401 495 L 440 495 Q 450 495 450 505 L 450 524 Q 450 534 440 534 L 401 534 Q 391 534 391 524 L 391 505 Q 391 495 401 495 Z" opacity="0.2"/></g><g transform="translate(-214,-125) scale(1,1)"><path fill="#ffffff" stroke="none" d="M 394 488 L 433 488 Q 443 488 443 498 L 443 517 Q 443 527 433 527 L 394 527 Q 384 527 384 517 L 384 498 Q 384 488 394 488 Z"/></g><g transform="translate(-214,-125) scale(1,1)"><path fill="none" stroke="#000000" d="M 394 488 L 433 488 Q 443 488 443 498 L 443 517 Q 443 527 433 527 L 394 527 Q 384 527 384 517 L 384 498 Q 384 488 394 488 Z" stroke-miterlimit="10"/></g><g transform="translate(-214,-125) scale(1,1)"><g><path fill="none" stroke="none"/><text fill="#000000" stroke="none" font-family="Arial" font-size="13px" font-style="normal" font-weight="bold" text-decoration="none" x="397.240478515625" y="507.5">sharp</text></g></g><g transform="translate(-214,-125) scale(1,1)"><path fill="#C0C0C0" stroke="none" d="M 529 495 L 568 495 Q 578 495 578 505 L 578 524 Q 578 534 568 534 L 529 534 Q 519 534 519 524 L 519 505 Q 519 495 529 495 Z" opacity="0.2"/></g><g transform="translate(-214,-125) scale(1,1)"><path fill="#ffffff" stroke="none" d="M 522 488 L 561 488 Q 571 488 571 498 L 571 517 Q 571 527 561 527 L 522 527 Q 512 527 512 517 L 512 498 Q 512 488 522 488 Z"/></g><g transform="translate(-214,-125) scale(1,1)"><path fill="none" stroke="#000000" d="M 522 488 L 561 488 Q 571 488 571 498 L 571 517 Q 571 527 561 527 L 522 527 Q 512 527 512 517 L 512 498 Q 512 488 522 488 Z" stroke-miterlimit="10"/></g><g transform="translate(-214,-125) scale(1,1)"><g><path fill="none" stroke="none"/><text fill="#000000" stroke="none" font-family="Arial" font-size="13px" font-style="normal" font-weight="bold" text-decoration="none" x="519.102294921875" y="507.5">decimal</text></g></g><g transform="translate(-214,-125) scale(1,1)"><path fill="#C0C0C0" stroke="none" d="M 513 583 L 580.04443359375 583 Q 590.04443359375 583 590.04443359375 593 L 590.04443359375 612 Q 590.04443359375 622 580.04443359375 622 L 513 622 Q 503 622 503 612 L 503 593 Q 503 583 513 583 Z" opacity="0.2"/></g><g transform="translate(-214,-125) scale(1,1)"><path fill="#ffffff" stroke="none" d="M 506 576 L 573.04443359375 576 Q 583.04443359375 576 583.04443359375 586 L 583.04443359375 605 Q 583.04443359375 615 573.04443359375 615 L 506 615 Q 496 615 496 605 L 496 586 Q 496 576 506 576 Z"/></g><g transform="translate(-214,-125) scale(1,1)"><path fill="none" stroke="#000000" d="M 506 576 L 573.04443359375 576 Q 583.04443359375 576 583.04443359375 586 L 583.04443359375 605 Q 583.04443359375 615 573.04443359375 615 L 506 615 Q 496 615 496 605 L 496 586 Q 496 576 506 576 Z" stroke-miterlimit="10"/></g><g transform="translate(-214,-125) scale(1,1)"><g><path fill="none" stroke="none"/><text fill="#000000" stroke="none" font-family="Arial" font-size="13px" font-style="normal" font-weight="bold" text-decoration="none" x="503.029541015625" y="595.5">hexadecimal</text></g></g><g transform="translate(-214,-125) scale(1,1)"><path fill="#C0C0C0" stroke="none" d="M 681 495 L 734.29541015625 495 Q 744.29541015625 495 744.29541015625 505 L 744.29541015625 524 Q 744.29541015625 534 734.29541015625 534 L 681 534 Q 671 534 671 524 L 671 505 Q 671 495 681 495 Z" opacity="0.2"/></g><g transform="translate(-214,-125) scale(1,1)"><path fill="#ffffff" stroke="none" d="M 674 488 L 727.29541015625 488 Q 737.29541015625 488 737.29541015625 498 L 737.29541015625 517 Q 737.29541015625 527 727.29541015625 527 L 674 527 Q 664 527 664 517 L 664 498 Q 664 488 674 488 Z"/></g><g transform="translate(-214,-125) scale(1,1)"><path fill="none" stroke="#000000" d="M 674 488 L 727.29541015625 488 Q 737.29541015625 488 737.29541015625 498 L 737.29541015625 517 Q 737.29541015625 527 727.29541015625 527 L 674 527 Q 664 527 664 517 L 664 498 Q 664 488 674 488 Z" stroke-miterlimit="10"/></g><g transform="translate(-214,-125) scale(1,1)"><g><path fill="none" stroke="none"/><text fill="#000000" stroke="none" font-family="Arial" font-size="13px" font-style="normal" font-weight="bold" text-decoration="none" x="671.385009765625" y="507.5">semicolon</text></g></g><g transform="translate(-214,-125) scale(1,1)"><path fill="none" stroke="#000000" d="M 303 489 L 479 409" stroke-miterlimit="10"/></g><g transform="translate(-214,-125) scale(1,1)"><path fill="none" stroke="#000000" d="M 471.49015232979445 417.03754862942105 L 479 409 L 468.0063306467394 409.37314092669993" stroke-miterlimit="10"/></g><g transform="translate(-214,-125) scale(1,1)"><g><path fill="none" stroke="none"/><text fill="#000000" stroke="none" font-family="Arial" font-size="13px" font-style="normal" font-weight="normal" text-decoration="none" x="369.5" y="441.5">letter</text></g></g><g transform="translate(-214,-125) scale(1,1)"><path fill="none" stroke="#000000" d="M 520 376 L 520 355 L 480 355 L 480 376" stroke-miterlimit="10"/></g><g transform="translate(-214,-125) scale(1,1)"><path fill="none" stroke="#000000" d="M 475.790482243984 365.83732514237585 L 480 376 L 484.209517756016 365.83732514237585" stroke-miterlimit="10"/></g><g transform="translate(-214,-125) scale(1,1)"><g><path fill="none" stroke="none"/><text fill="#000000" stroke="none" font-family="Arial" font-size="13px" font-style="normal" font-weight="normal" text-decoration="none" x="486.5" y="348.5">letter</text></g></g><g transform="translate(-214,-125) scale(1,1)"><path fill="none" stroke="#000000" d="M 540 413 L 666 487" stroke-miterlimit="10"/></g><g transform="translate(-214,-125) scale(1,1)"><path fill="none" stroke="#000000" d="M 655.1050773766008 485.48320699166163 L 666 487 L 659.3686609543441 478.2235917106393" stroke-miterlimit="10"/></g><g transform="translate(-214,-125) scale(1,1)"><g><path fill="none" stroke="none"/><text fill="#000000" stroke="none" font-family="Arial" font-size="13px" font-style="normal" font-weight="normal" text-decoration="none" x="580.5" y="443.5">semicolon</text></g></g><g transform="translate(-214,-125) scale(1,1)"><path fill="none" stroke="#000000" d="M 303 507 L 383 507" stroke-miterlimit="10"/></g><g transform="translate(-214,-125) scale(1,1)"><path fill="none" stroke="#000000" d="M 372.83732514237585 511.209517756016 L 383 507 L 372.83732514237585 502.790482243984" stroke-miterlimit="10"/></g><g transform="translate(-214,-125) scale(1,1)"><g><path fill="none" stroke="none"/><text fill="#000000" stroke="none" font-family="Arial" font-size="13px" font-style="normal" font-weight="normal" text-decoration="none" x="326.5" y="498.5">sharp</text></g></g><g transform="translate(-214,-125) scale(1,1)"><path fill="none" stroke="#000000" d="M 444 507 L 511 507" stroke-miterlimit="10"/></g><g transform="translate(-214,-125) scale(1,1)"><path fill="none" stroke="#000000" d="M 500.83732514237585 511.209517756016 L 511 507 L 500.83732514237585 502.790482243984" stroke-miterlimit="10"/></g><g transform="translate(-214,-125) scale(1,1)"><g><path fill="none" stroke="none"/><text fill="#000000" stroke="none" font-family="Arial" font-size="13px" font-style="normal" font-weight="normal" text-decoration="none" x="464.575927734375" y="498.5">digit</text></g></g><g transform="translate(-214,-125) scale(1,1)"><path fill="none" stroke="#000000" d="M 552 488 L 552 467 L 512 467 L 512 488" stroke-miterlimit="10"/></g><g transform="translate(-214,-125) scale(1,1)"><path fill="none" stroke="#000000" d="M 507.790482243984 477.83732514237585 L 512 488 L 516.209517756016 477.83732514237585" stroke-miterlimit="10"/></g><g transform="translate(-214,-125) scale(1,1)"><g><path fill="none" stroke="none"/><text fill="#000000" stroke="none" font-family="Arial" font-size="13px" font-style="normal" font-weight="normal" text-decoration="none" x="518.575927734375" y="459.5">digit</text></g></g><g transform="translate(-214,-125) scale(1,1)"><path fill="none" stroke="#000000" d="M 572 507 L 663 507" stroke-miterlimit="10"/></g><g transform="translate(-214,-125) scale(1,1)"><path fill="none" stroke="#000000" d="M 652.8373251423759 511.209517756016 L 663 507 L 652.8373251423758 502.790482243984" stroke-miterlimit="10"/></g><g transform="translate(-214,-125) scale(1,1)"><g><path fill="none" stroke="none"/><text fill="#000000" stroke="none" font-family="Arial" font-size="13px" font-style="normal" font-weight="normal" text-decoration="none" x="587.5" y="498.5">semicolon</text></g></g><g transform="translate(-214,-125) scale(1,1)"><path fill="none" stroke="#000000" d="M 414 527 L 414 600 L 496 600" stroke-miterlimit="10"/></g><g transform="translate(-214,-125) scale(1,1)"><path fill="none" stroke="#000000" d="M 485.83732514237585 604.209517756016 L 496 600 L 485.83732514237585 595.790482243984" stroke-miterlimit="10"/></g><g transform="translate(-214,-125) scale(1,1)"><g><path fill="none" stroke="none"/><text fill="#000000" stroke="none" font-family="Arial" font-size="13px" font-style="normal" font-weight="normal" text-decoration="none" x="446" y="596.5">x</text></g></g><g transform="translate(-214,-125) scale(1,1)"><path fill="none" stroke="#000000" d="M 544 576 L 544 555 L 496 555 L 496 576" stroke-miterlimit="10"/></g><g transform="translate(-214,-125) scale(1,1)"><path fill="none" stroke="#000000" d="M 491.790482243984 565.8373251423759 L 496 576 L 500.209517756016 565.8373251423759" stroke-miterlimit="10"/></g><g transform="translate(-214,-125) scale(1,1)"><g><path fill="none" stroke="none"/><text fill="#000000" stroke="none" font-family="Arial" font-size="13px" font-style="normal" font-weight="normal" text-decoration="none" x="503.5" y="555.5">hexa</text></g></g><g transform="translate(-214,-125) scale(1,1)"><path fill="none" stroke="#000000" d="M 576 575 L 663 527" stroke-miterlimit="10"/></g><g transform="translate(-214,-125) scale(1,1)"><path fill="none" stroke="#000000" d="M 656.1353113371584 535.5951177747751 L 663 527 L 652.0682660321298 528.2235981594108" stroke-miterlimit="10"/></g><g transform="translate(-214,-125) scale(1,1)"><g><path fill="none" stroke="none"/><text fill="#000000" stroke="none" font-family="Arial" font-size="13px" font-style="normal" font-weight="normal" text-decoration="none" x="583.5" y="555.5">semicolon</text></g></g><g transform="translate(-214,-125) scale(1,1)"><path fill="#C0C0C0" stroke="none" d="M 513 223 L 552 223 Q 562 223 562 233 L 562 252 Q 562 262 552 262 L 513 262 Q 503 262 503 252 L 503 233 Q 503 223 513 223 Z" opacity="0.2"/></g><g transform="translate(-214,-125) scale(1,1)"><path fill="#ffffff" stroke="none" d="M 506 216 L 545 216 Q 555 216 555 226 L 555 245 Q 555 255 545 255 L 506 255 Q 496 255 496 245 L 496 226 Q 496 216 506 216 Z"/></g><g transform="translate(-214,-125) scale(1,1)"><path fill="none" stroke="#000000" d="M 506 216 L 545 216 Q 555 216 555 226 L 555 245 Q 555 255 545 255 L 506 255 Q 496 255 496 245 L 496 226 Q 496 216 506 216 Z" stroke-miterlimit="10"/></g><g transform="translate(-214,-125) scale(1,1)"><g><path fill="none" stroke="none"/><text fill="#000000" stroke="none" font-family="Arial" font-size="13px" font-style="normal" font-weight="bold" text-decoration="none" x="504.17822265625" y="235.5">content</text></g></g><g transform="translate(-214,-125) scale(1,1)"><path fill="none" stroke="#000000" d="M 536 216 L 536 195 L 496 195 L 496 216" stroke-miterlimit="10"/></g><g transform="translate(-214,-125) scale(1,1)"><path fill="none" stroke="#000000" d="M 491.790482243984 205.83732514237585 L 496 216 L 500.209517756016 205.83732514237585" stroke-miterlimit="10"/></g><g transform="translate(-214,-125) scale(1,1)"><g><path fill="none" stroke="none"/><text fill="#000000" stroke="none" font-family="Arial" font-size="13px" font-style="normal" font-weight="normal" text-decoration="none" x="470.5" y="195.5">not ampersand</text></g></g><g transform="translate(-214,-125) scale(1,1)"><path fill="none" stroke="#000000" d="M 505 256 L 282 487" stroke-miterlimit="10"/></g><g transform="translate(-214,-125) scale(1,1)"><path fill="none" stroke="#000000" d="M 286.02981419526145 476.7647375435864 L 282 487 L 292.0869324345453 482.61208545423705" stroke-miterlimit="10"/></g><g transform="translate(-214,-125) scale(1,1)"><g><path fill="none" stroke="none"/><text fill="#000000" stroke="none" font-family="Arial" font-size="13px" font-style="normal" font-weight="normal" text-decoration="none" x="359.5" y="363.5">ampersand</text></g></g><g transform="translate(-214,-125) scale(1,1)"><path fill="none" stroke="#000000" d="M 687 487 L 539 256" stroke-miterlimit="10"/></g><g transform="translate(-214,-125) scale(1,1)"><path fill="none" stroke="#000000" d="M 548.0268728273961 262.2861408636791 L 539 256 L 540.937990156959 266.8279358213618" stroke-miterlimit="10"/></g><g transform="translate(-214,-125) scale(1,1)"><g><path fill="none" stroke="none"/><text fill="#000000" stroke="none" font-family="Arial" font-size="13px" font-style="normal" font-weight="normal" text-decoration="none" x="582.5" y="379.5">not ampersand</text></g></g><g transform="translate(-214,-125) scale(1,1)"><path fill="none" stroke="#000000" d="M 712 488 L 712 152 L 256 152 L 256 488" stroke-miterlimit="10"/></g><g transform="translate(-214,-125) scale(1,1)"><path fill="none" stroke="#000000" d="M 251.790482243984 477.83732514237585 L 256 488 L 260.209517756016 477.83732514237585" stroke-miterlimit="10"/></g><g transform="translate(-214,-125) scale(1,1)"><g><path fill="none" stroke="none"/><text fill="#000000" stroke="none" font-family="Arial" font-size="13px" font-style="normal" font-weight="normal" text-decoration="none" x="450.5" y="147.5">ampersand</text></g></g></g></svg>